<svg width="300" height="300" viewBox="0 0 300 300" fill="none" xmlns="http://www.w3.org/2000/svg">
<rect width="300" height="300" rx="100" fill="white"/>
<g filter="url(#filter0_ddddn_44_4)">
<mask id="path-2-outside-1_44_4" maskUnits="userSpaceOnUse" x="85" y="78" width="133" height="155" fill="black">
<rect fill="white" x="85" y="78" width="133" height="155"/>
<path d="M132.617 90.1836C137.956 89.9232 141.764 89.793 144.043 89.793C167.806 89.793 179.688 101.805 179.688 125.828C179.688 136.18 177.376 144.35 172.754 150.34C168.132 156.264 161.23 159.227 152.051 159.227C145.15 159.227 138.477 158.022 132.031 155.613C132.031 135.496 132.227 113.686 132.617 90.1836ZM109.473 213.426C110.254 197.15 110.645 176.674 110.645 152C110.645 131.036 110.319 112.905 109.668 97.6055C109.538 95.1966 102.279 93.276 87.8906 91.8438C86.7839 87.5469 86.9141 83.3477 88.2812 79.2461C95.1823 79.5065 102.604 79.6693 110.547 79.7344C118.49 79.7995 127.604 79.7669 137.891 79.6367C148.242 79.5065 155.827 79.4414 160.645 79.4414C178.678 79.4414 192.415 83.6732 201.855 92.1367C211.296 100.6 216.016 111.896 216.016 126.023C216.016 140.281 210.775 151.447 200.293 159.52C189.876 167.592 176.335 171.629 159.668 171.629C154.98 171.629 150.781 171.206 147.07 170.359C147.07 188.784 147.266 203.204 147.656 213.621C147.656 214.012 148.112 214.533 149.023 215.184C150 215.835 151.4 216.453 153.223 217.039C155.111 217.625 158.138 218.211 162.305 218.797C166.536 219.318 168.978 219.643 169.629 219.773C170.736 223.419 170.54 227.423 169.043 231.785C145.02 231.264 130.436 231.004 125.293 231.004C121.517 231.004 109.115 231.264 88.0859 231.785C86.4583 227.293 86.4583 223.094 88.0859 219.188C102.214 217.755 109.342 215.835 109.473 213.426ZM175.684 125.828C175.684 105.646 166.276 95.0339 147.461 93.9922C147.201 108.38 147.07 128.107 147.07 153.172C149.479 154.279 152.083 154.962 154.883 155.223C161.654 154.572 166.797 151.642 170.312 146.434C173.893 141.225 175.684 134.357 175.684 125.828ZM113.477 213.621C113.346 218.439 105.794 221.564 90.8203 222.996C90.2995 224.038 90.2995 225.568 90.8203 227.586C101.888 227.195 113.379 227 125.293 227C139.16 227 152.474 227.195 165.234 227.586C165.755 226.544 165.755 225.014 165.234 222.996C143.62 221.694 132.747 218.569 132.617 213.621C132.227 195.197 132.031 178.042 132.031 162.156C140.169 165.802 149.382 167.625 159.668 167.625C172.884 167.625 183.073 163.751 190.234 156.004C197.461 148.257 201.074 138.263 201.074 126.023C201.074 113.198 197.005 102.911 188.867 95.1641C180.729 87.3516 168.978 83.4453 153.613 83.4453C148.861 83.4453 142.188 83.543 133.594 83.7383C125 83.9336 117.285 84.0312 110.449 84.0312C103.678 84.0312 97.2005 83.8359 91.0156 83.4453C90.4948 84.6172 90.4948 86.1471 91.0156 88.0352C93.9453 88.2956 96.3542 88.556 98.2422 88.8164C100.13 89.0768 102.441 89.5326 105.176 90.1836C107.91 90.8346 109.961 91.7786 111.328 93.0156C112.76 94.1875 113.542 95.6523 113.672 97.4102C114.323 112.71 114.648 130.906 114.648 152C114.648 172.638 114.258 193.178 113.477 213.621Z"/>
</mask>
<path d="M132.617 90.1836C137.956 89.9232 141.764 89.793 144.043 89.793C167.806 89.793 179.688 101.805 179.688 125.828C179.688 136.18 177.376 144.35 172.754 150.34C168.132 156.264 161.23 159.227 152.051 159.227C145.15 159.227 138.477 158.022 132.031 155.613C132.031 135.496 132.227 113.686 132.617 90.1836ZM109.473 213.426C110.254 197.15 110.645 176.674 110.645 152C110.645 131.036 110.319 112.905 109.668 97.6055C109.538 95.1966 102.279 93.276 87.8906 91.8438C86.7839 87.5469 86.9141 83.3477 88.2812 79.2461C95.1823 79.5065 102.604 79.6693 110.547 79.7344C118.49 79.7995 127.604 79.7669 137.891 79.6367C148.242 79.5065 155.827 79.4414 160.645 79.4414C178.678 79.4414 192.415 83.6732 201.855 92.1367C211.296 100.6 216.016 111.896 216.016 126.023C216.016 140.281 210.775 151.447 200.293 159.52C189.876 167.592 176.335 171.629 159.668 171.629C154.98 171.629 150.781 171.206 147.07 170.359C147.07 188.784 147.266 203.204 147.656 213.621C147.656 214.012 148.112 214.533 149.023 215.184C150 215.835 151.4 216.453 153.223 217.039C155.111 217.625 158.138 218.211 162.305 218.797C166.536 219.318 168.978 219.643 169.629 219.773C170.736 223.419 170.54 227.423 169.043 231.785C145.02 231.264 130.436 231.004 125.293 231.004C121.517 231.004 109.115 231.264 88.0859 231.785C86.4583 227.293 86.4583 223.094 88.0859 219.188C102.214 217.755 109.342 215.835 109.473 213.426ZM175.684 125.828C175.684 105.646 166.276 95.0339 147.461 93.9922C147.201 108.38 147.07 128.107 147.07 153.172C149.479 154.279 152.083 154.962 154.883 155.223C161.654 154.572 166.797 151.642 170.312 146.434C173.893 141.225 175.684 134.357 175.684 125.828ZM113.477 213.621C113.346 218.439 105.794 221.564 90.8203 222.996C90.2995 224.038 90.2995 225.568 90.8203 227.586C101.888 227.195 113.379 227 125.293 227C139.16 227 152.474 227.195 165.234 227.586C165.755 226.544 165.755 225.014 165.234 222.996C143.62 221.694 132.747 218.569 132.617 213.621C132.227 195.197 132.031 178.042 132.031 162.156C140.169 165.802 149.382 167.625 159.668 167.625C172.884 167.625 183.073 163.751 190.234 156.004C197.461 148.257 201.074 138.263 201.074 126.023C201.074 113.198 197.005 102.911 188.867 95.1641C180.729 87.3516 168.978 83.4453 153.613 83.4453C148.861 83.4453 142.188 83.543 133.594 83.7383C125 83.9336 117.285 84.0312 110.449 84.0312C103.678 84.0312 97.2005 83.8359 91.0156 83.4453C90.4948 84.6172 90.4948 86.1471 91.0156 88.0352C93.9453 88.2956 96.3542 88.556 98.2422 88.8164C100.13 89.0768 102.441 89.5326 105.176 90.1836C107.91 90.8346 109.961 91.7786 111.328 93.0156C112.76 94.1875 113.542 95.6523 113.672 97.4102C114.323 112.71 114.648 130.906 114.648 152C114.648 172.638 114.258 193.178 113.477 213.621Z" fill="#0EDA96"/>
<path d="M132.617 90.1836L132.568 89.1848L131.633 89.2304L131.617 90.167L132.617 90.1836ZM172.754 150.34L173.542 150.955L173.546 150.951L172.754 150.34ZM132.031 155.613H131.031V156.307L131.681 156.55L132.031 155.613ZM109.473 213.426L110.471 213.48L110.472 213.474L109.473 213.426ZM109.668 97.6055L110.667 97.563L110.667 97.5515L109.668 97.6055ZM87.8906 91.8438L86.9222 92.0932L87.0965 92.7696L87.7916 92.8388L87.8906 91.8438ZM88.2812 79.2461L88.319 78.2468L87.5697 78.2185L87.3326 78.9299L88.2812 79.2461ZM110.547 79.7344L110.555 78.7344L110.547 79.7344ZM137.891 79.6367L137.878 78.6368H137.878L137.891 79.6367ZM201.855 92.1367L201.188 92.8813L201.855 92.1367ZM200.293 159.52L199.683 158.727L199.68 158.729L200.293 159.52ZM147.07 170.359L147.293 169.384L146.07 169.106V170.359H147.07ZM147.656 213.621H148.656V213.602L148.656 213.584L147.656 213.621ZM149.023 215.184L148.442 215.997L148.455 216.007L148.469 216.016L149.023 215.184ZM153.223 217.039L152.917 217.991L152.926 217.994L153.223 217.039ZM162.305 218.797L162.165 219.787L162.174 219.788L162.183 219.789L162.305 218.797ZM169.629 219.773L170.586 219.483L170.412 218.91L169.825 218.793L169.629 219.773ZM169.043 231.785L169.021 232.785L169.752 232.801L169.989 232.11L169.043 231.785ZM88.0859 231.785L87.1457 232.126L87.391 232.803L88.1107 232.785L88.0859 231.785ZM88.0859 219.188L87.9851 218.193L87.3921 218.253L87.1629 218.803L88.0859 219.188ZM147.461 93.9922L147.516 92.9937L146.48 92.9363L146.461 93.9741L147.461 93.9922ZM147.07 153.172H146.07V153.813L146.653 154.081L147.07 153.172ZM154.883 155.223L154.79 156.218L154.884 156.227L154.979 156.218L154.883 155.223ZM170.312 146.434L169.488 145.867L169.484 145.874L170.312 146.434ZM113.477 213.621L112.477 213.583L112.477 213.594L113.477 213.621ZM90.8203 222.996L90.7251 222.001L90.1736 222.053L89.9259 222.549L90.8203 222.996ZM90.8203 227.586L89.852 227.836L90.0528 228.614L90.8556 228.585L90.8203 227.586ZM165.234 227.586L165.204 228.585L165.843 228.605L166.129 228.033L165.234 227.586ZM165.234 222.996L166.203 222.746L166.021 222.042L165.295 221.998L165.234 222.996ZM132.617 213.621L131.617 213.642L131.618 213.647L132.617 213.621ZM132.031 162.156L132.44 161.244L131.031 160.612V162.156H132.031ZM190.234 156.004L189.503 155.322L189.5 155.325L190.234 156.004ZM188.867 95.1641L188.175 95.8855L188.178 95.8883L188.867 95.1641ZM91.0156 83.4453L91.0787 82.4473L90.3844 82.4035L90.1018 83.0392L91.0156 83.4453ZM91.0156 88.0352L90.0516 88.3011L90.2361 88.9698L90.9271 89.0312L91.0156 88.0352ZM111.328 93.0156L110.657 93.7572L110.676 93.7738L110.695 93.7896L111.328 93.0156ZM113.672 97.4102L114.671 97.3676L114.67 97.3519L114.669 97.3363L113.672 97.4102ZM132.617 90.1836L132.666 91.1824C138.004 90.922 141.791 90.793 144.043 90.793V89.793V88.793C141.738 88.793 137.908 88.9243 132.568 89.1848L132.617 90.1836ZM144.043 89.793V90.793C155.768 90.793 164.378 93.7552 170.065 99.505C175.755 105.257 178.688 113.968 178.688 125.828H179.688H180.688C180.688 113.665 177.679 104.358 171.487 98.0985C165.293 91.8366 156.081 88.793 144.043 88.793V89.793ZM179.688 125.828H178.688C178.688 136.039 176.408 143.969 171.962 149.729L172.754 150.34L173.546 150.951C178.345 144.732 180.688 136.32 180.688 125.828H179.688ZM172.754 150.34L171.965 149.725C167.575 155.352 160.998 158.227 152.051 158.227V159.227V160.227C161.463 160.227 168.688 157.176 173.542 150.955L172.754 150.34ZM152.051 159.227V158.227C145.269 158.227 138.714 157.043 132.381 154.677L132.031 155.613L131.681 156.55C138.239 159.001 145.031 160.227 152.051 160.227V159.227ZM132.031 155.613H133.031C133.031 135.502 133.227 113.698 133.617 90.2002L132.617 90.1836L131.617 90.167C131.227 113.674 131.031 135.49 131.031 155.613H132.031ZM109.473 213.426L110.472 213.474C111.254 197.176 111.645 176.683 111.645 152H110.645H109.645C109.645 176.666 109.254 197.124 108.474 213.378L109.473 213.426ZM110.645 152H111.645C111.645 131.027 111.319 112.881 110.667 97.563L109.668 97.6055L108.669 97.648C109.319 112.929 109.645 131.046 109.645 152H110.645ZM109.668 97.6055L110.667 97.5515C110.605 96.4206 109.732 95.609 108.739 95.0276C107.7 94.4187 106.229 93.8804 104.382 93.3917C100.673 92.4105 95.1977 91.5662 87.9897 90.8487L87.8906 91.8438L87.7916 92.8388C94.9716 93.5536 100.32 94.3857 103.87 95.3251C105.653 95.7967 106.92 96.2797 107.728 96.7532C108.583 97.2541 108.665 97.5859 108.669 97.6594L109.668 97.6055ZM87.8906 91.8438L88.859 91.5943C87.799 87.4788 87.9253 83.4762 89.2299 79.5623L88.2812 79.2461L87.3326 78.9299C85.9028 83.2192 85.7688 87.615 86.9222 92.0932L87.8906 91.8438ZM88.2812 79.2461L88.2435 80.2454C95.1557 80.5062 102.588 80.6692 110.539 80.7343L110.547 79.7344L110.555 78.7344C102.621 78.6694 95.2088 78.5068 88.319 78.2468L88.2812 79.2461ZM110.547 79.7344L110.539 80.7343C118.49 80.7995 127.612 80.7669 137.903 80.6366L137.891 79.6367L137.878 78.6368C127.597 78.7669 118.489 78.7994 110.555 78.7344L110.547 79.7344ZM137.891 79.6367L137.903 80.6366C148.254 80.5064 155.834 80.4414 160.645 80.4414V79.4414V78.4414C155.82 78.4414 148.23 78.5066 137.878 78.6368L137.891 79.6367ZM160.645 79.4414V80.4414C178.535 80.4414 191.996 84.6401 201.188 92.8813L201.855 92.1367L202.523 91.3922C192.835 82.7062 178.821 78.4414 160.645 78.4414V79.4414ZM201.855 92.1367L201.188 92.8813C210.391 101.132 215.016 112.144 215.016 126.023H216.016H217.016C217.016 111.648 212.2 100.068 202.523 91.3922L201.855 92.1367ZM216.016 126.023H215.016C215.016 139.999 209.898 150.86 199.683 158.727L200.293 159.52L200.903 160.312C211.652 152.033 217.016 140.564 217.016 126.023H216.016ZM200.293 159.52L199.68 158.729C189.481 166.634 176.172 170.629 159.668 170.629V171.629V172.629C176.497 172.629 190.272 168.551 200.906 160.31L200.293 159.52ZM159.668 171.629V170.629C155.039 170.629 150.916 170.211 147.293 169.384L147.07 170.359L146.848 171.334C150.646 172.201 154.922 172.629 159.668 172.629V171.629ZM147.07 170.359H146.07C146.07 188.788 146.266 203.223 146.657 213.659L147.656 213.621L148.656 213.584C148.266 203.185 148.07 188.779 148.07 170.359H147.07ZM147.656 213.621H146.656C146.656 214.186 146.969 214.647 147.245 214.963C147.546 215.306 147.957 215.651 148.442 215.997L149.023 215.184L149.605 214.37C149.178 214.065 148.906 213.824 148.751 213.646C148.571 213.441 148.656 213.447 148.656 213.621H147.656ZM149.023 215.184L148.469 216.016C149.555 216.74 151.054 217.392 152.917 217.991L153.223 217.039L153.529 216.087C151.746 215.514 150.445 214.929 149.578 214.352L149.023 215.184ZM153.223 217.039L152.926 217.994C154.896 218.605 157.991 219.2 162.165 219.787L162.305 218.797L162.444 217.807C158.285 217.222 155.325 216.645 153.519 216.084L153.223 217.039ZM162.305 218.797L162.183 219.789C166.439 220.313 168.829 220.633 169.433 220.754L169.629 219.773L169.825 218.793C169.127 218.653 166.634 218.322 162.427 217.804L162.305 218.797ZM169.629 219.773L168.672 220.064C169.706 223.469 169.541 227.255 168.097 231.46L169.043 231.785L169.989 232.11C171.54 227.592 171.766 223.369 170.586 219.483L169.629 219.773ZM169.043 231.785L169.065 230.785C145.046 230.265 130.45 230.004 125.293 230.004V231.004V232.004C130.423 232.004 144.993 232.264 169.021 232.785L169.043 231.785ZM125.293 231.004V230.004C121.501 230.004 109.083 230.265 88.0612 230.785L88.0859 231.785L88.1107 232.785C109.147 232.264 121.533 232.004 125.293 232.004V231.004ZM88.0859 231.785L89.0261 231.445C87.472 227.155 87.4903 223.217 89.009 219.572L88.0859 219.188L87.1629 218.803C85.4264 222.97 85.4447 227.431 87.1457 232.126L88.0859 231.785ZM88.0859 219.188L88.1868 220.182C95.2649 219.465 100.644 218.62 104.288 217.638C106.104 217.149 107.551 216.61 108.575 216C109.556 215.415 110.411 214.602 110.471 213.48L109.473 213.426L108.474 213.372C108.47 213.454 108.384 213.785 107.551 214.282C106.759 214.754 105.517 215.236 103.768 215.707C100.284 216.646 95.0346 217.478 87.9851 218.193L88.0859 219.188ZM175.684 125.828H176.684C176.684 115.595 174.299 107.622 169.376 102.069C164.443 96.5043 157.099 93.5243 147.516 92.9937L147.461 93.9922L147.406 94.9907C156.637 95.5018 163.405 98.3486 167.88 103.396C172.364 108.454 174.684 115.879 174.684 125.828H175.684ZM147.461 93.9922L146.461 93.9741C146.201 108.371 146.07 128.104 146.07 153.172H147.07H148.07C148.07 128.109 148.201 108.389 148.461 94.0103L147.461 93.9922ZM147.07 153.172L146.653 154.081C149.17 155.237 151.885 155.948 154.79 156.218L154.883 155.223L154.975 154.227C152.282 153.976 149.788 153.32 147.488 152.263L147.07 153.172ZM154.883 155.223L154.979 156.218C162.019 155.541 167.444 152.471 171.141 146.993L170.312 146.434L169.484 145.874C166.15 150.813 161.289 153.602 154.787 154.227L154.883 155.223ZM170.312 146.434L171.137 147C174.866 141.576 176.684 134.49 176.684 125.828H175.684H174.684C174.684 134.224 172.921 140.875 169.488 145.867L170.312 146.434ZM113.477 213.621L112.477 213.594C112.429 215.379 111.018 217.129 107.332 218.654C103.695 220.159 98.1815 221.287 90.7251 222.001L90.8203 222.996L90.9155 223.992C98.4331 223.272 104.183 222.122 108.097 220.502C111.964 218.902 114.394 216.68 114.476 213.648L113.477 213.621ZM90.8203 222.996L89.9259 222.549C89.2395 223.922 89.3137 225.75 89.852 227.836L90.8203 227.586L91.7886 227.336C91.2853 225.386 91.3594 224.154 91.7147 223.443L90.8203 222.996ZM90.8203 227.586L90.8556 228.585C101.911 228.195 113.39 228 125.293 228V227V226C113.368 226 101.865 226.195 90.785 226.587L90.8203 227.586ZM125.293 227V228C139.151 228 152.454 228.195 165.204 228.585L165.234 227.586L165.265 226.586C152.494 226.195 139.169 226 125.293 226V227ZM165.234 227.586L166.129 228.033C166.815 226.66 166.741 224.832 166.203 222.746L165.234 222.996L164.266 223.246C164.769 225.196 164.695 226.428 164.34 227.139L165.234 227.586ZM165.234 222.996L165.295 221.998C154.507 221.348 146.474 220.246 141.145 218.715C138.476 217.947 136.559 217.092 135.321 216.184C134.094 215.284 133.638 214.416 133.617 213.595L132.617 213.621L131.618 213.647C131.661 215.3 132.613 216.678 134.137 217.796C135.65 218.906 137.826 219.842 140.593 220.637C146.137 222.23 154.347 223.342 165.174 223.994L165.234 222.996ZM132.617 213.621L133.617 213.6C133.226 195.181 133.031 178.034 133.031 162.156H132.031H131.031C131.031 178.05 131.227 195.212 131.617 213.642L132.617 213.621ZM132.031 162.156L131.622 163.069C139.907 166.78 149.262 168.625 159.668 168.625V167.625V166.625C149.501 166.625 140.431 164.824 132.44 161.244L132.031 162.156ZM159.668 167.625V168.625C173.088 168.625 183.572 164.684 190.969 156.683L190.234 156.004L189.5 155.325C182.574 162.818 172.681 166.625 159.668 166.625V167.625ZM190.234 156.004L190.966 156.686C198.392 148.725 202.074 138.474 202.074 126.023H201.074H200.074C200.074 138.052 196.53 147.788 189.503 155.322L190.234 156.004ZM201.074 126.023H202.074C202.074 112.967 197.922 102.403 189.557 94.4398L188.867 95.1641L188.178 95.8883C196.089 103.42 200.074 113.429 200.074 126.023H201.074ZM188.867 95.1641L189.56 94.4427C181.177 86.3948 169.141 82.4453 153.613 82.4453V83.4453V84.4453C168.815 84.4453 180.282 88.3083 188.175 95.8855L188.867 95.1641ZM153.613 83.4453V82.4453C148.849 82.4453 142.167 82.5432 133.571 82.7385L133.594 83.7383L133.616 84.738C142.208 84.5428 148.872 84.4453 153.613 84.4453V83.4453ZM133.594 83.7383L133.571 82.7385C124.983 82.9337 117.276 83.0312 110.449 83.0312V84.0312V85.0312C117.294 85.0312 125.017 84.9335 133.616 84.738L133.594 83.7383ZM110.449 84.0312V83.0312C103.698 83.0312 97.2408 82.8365 91.0787 82.4473L91.0156 83.4453L90.9526 84.4433C97.1603 84.8354 103.659 85.0312 110.449 85.0312V84.0312ZM91.0156 83.4453L90.1018 83.0392C89.4486 84.5088 89.5002 86.3022 90.0516 88.3011L91.0156 88.0352L91.9796 87.7692C91.4894 85.9921 91.541 84.7255 91.9294 83.8515L91.0156 83.4453ZM91.0156 88.0352L90.9271 89.0312C93.8483 89.2909 96.2396 89.5497 98.1056 89.807L98.2422 88.8164L98.3788 87.8258C96.4687 87.5623 94.0423 87.3002 91.1042 87.0391L91.0156 88.0352ZM98.2422 88.8164L98.1056 89.807C99.9505 90.0615 102.228 90.5097 104.944 91.1564L105.176 90.1836L105.407 89.2108C102.655 88.5554 100.31 88.0921 98.3788 87.8258L98.2422 88.8164ZM105.176 90.1836L104.944 91.1564C107.594 91.7872 109.463 92.677 110.657 93.7572L111.328 93.0156L111.999 92.2741C110.459 90.8803 108.227 89.8821 105.407 89.2108L105.176 90.1836ZM111.328 93.0156L110.695 93.7896C111.927 94.7976 112.566 96.0146 112.675 97.484L113.672 97.4102L114.669 97.3363C114.518 95.2901 113.594 93.5774 111.961 92.2417L111.328 93.0156ZM113.672 97.4102L112.673 97.4527C113.323 112.734 113.648 130.916 113.648 152H114.648H115.648C115.648 130.897 115.323 112.685 114.671 97.3676L113.672 97.4102ZM114.648 152H113.648C113.648 172.625 113.258 193.153 112.477 213.583L113.477 213.621L114.476 213.659C115.258 193.204 115.648 172.651 115.648 152H114.648Z" fill="#0D0D0D" fill-opacity="0.78" mask="url(#path-2-outside-1_44_4)"/>
</g>
<defs>
<filter id="filter0_ddddn_44_4" x="12.8652" y="57.2185" width="208.15" height="196.584" filterUnits="userSpaceOnUse" color-interpolation-filters="sRGB">
<feFlood flood-opacity="0" result="BackgroundImageFix"/>
<feColorMatrix in="SourceAlpha" type="matrix" values="0 0 0 0 0 0 0 0 0 0 0 0 0 0 0 0 0 0 127 0" result="hardAlpha"/>
<feOffset dx="-3"/>
<feGaussianBlur stdDeviation="3.5"/>
<feColorMatrix type="matrix" values="0 0 0 0 0 0 0 0 0 0 0 0 0 0 0 0 0 0 0.1 0"/>
<feBlend mode="normal" in2="BackgroundImageFix" result="effect1_dropShadow_44_4"/>
<feColorMatrix in="SourceAlpha" type="matrix" values="0 0 0 0 0 0 0 0 0 0 0 0 0 0 0 0 0 0 127 0" result="hardAlpha"/>
<feOffset dx="-13"/>
<feGaussianBlur stdDeviation="6.5"/>
<feColorMatrix type="matrix" values="0 0 0 0 0 0 0 0 0 0 0 0 0 0 0 0 0 0 0.09 0"/>
<feBlend mode="normal" in2="effect1_dropShadow_44_4" result="effect2_dropShadow_44_4"/>
<feColorMatrix in="SourceAlpha" type="matrix" values="0 0 0 0 0 0 0 0 0 0 0 0 0 0 0 0 0 0 127 0" result="hardAlpha"/>
<feOffset dx="-29"/>
<feGaussianBlur stdDeviation="8.5"/>
<feColorMatrix type="matrix" values="0 0 0 0 0 0 0 0 0 0 0 0 0 0 0 0 0 0 0.05 0"/>
<feBlend mode="normal" in2="effect2_dropShadow_44_4" result="effect3_dropShadow_44_4"/>
<feColorMatrix in="SourceAlpha" type="matrix" values="0 0 0 0 0 0 0 0 0 0 0 0 0 0 0 0 0 0 127 0" result="hardAlpha"/>
<feOffset dx="-52"/>
<feGaussianBlur stdDeviation="10.5"/>
<feColorMatrix type="matrix" values="0 0 0 0 0 0 0 0 0 0 0 0 0 0 0 0 0 0 0.01 0"/>
<feBlend mode="normal" in2="effect3_dropShadow_44_4" result="effect4_dropShadow_44_4"/>
<feBlend mode="normal" in="SourceGraphic" in2="BackgroundImageFix" result="shape"/>
<feTurbulence type="fractalNoise" baseFrequency="2 2" stitchTiles="stitch" numOctaves="3" result="noise" seed="0" />
<feColorMatrix in="noise" type="luminanceToAlpha" result="alphaNoise" />
<feComponentTransfer in="alphaNoise" result="coloredNoise1">
<feFuncA type="discrete" tableValues="1 1 1 1 1 1 1 1 1 1 1 1 1 1 1 1 1 1 1 1 1 1 1 1 1 1 1 1 1 1 1 1 1 1 1 1 1 1 1 1 1 1 1 1 1 1 1 1 1 1 1 0 0 0 0 0 0 0 0 0 0 0 0 0 0 0 0 0 0 0 0 0 0 0 0 0 0 0 0 0 0 0 0 0 0 0 0 0 0 0 0 0 0 0 0 0 0 0 0 0 "/>
</feComponentTransfer>
<feComposite operator="in" in2="shape" in="coloredNoise1" result="noise1Clipped" />
<feFlood flood-color="rgba(0, 0, 0, 0.25)" result="color1Flood" />
<feComposite operator="in" in2="noise1Clipped" in="color1Flood" result="color1" />
<feMerge result="effect5_noise_44_4">
<feMergeNode in="shape" />
<feMergeNode in="color1" />
</feMerge>
<feBlend mode="normal" in="effect5_noise_44_4" in2="effect4_dropShadow_44_4" result="effect5_noise_44_4"/>
</filter>
</defs>
</svg>
